<?xml version="1.0" encoding="utf-8"?>
<!-- Generator: Adobe Illustrator 15.0.0, SVG Export Plug-In . SVG Version: 6.00 Build 0)  -->
<!DOCTYPE svg PUBLIC "-//W3C//DTD SVG 1.1//EN" "http://www.w3.org/Graphics/SVG/1.1/DTD/svg11.dtd">
<svg version="1.1" id="Layer_1" xmlns="http://www.w3.org/2000/svg" xmlns:xlink="http://www.w3.org/1999/xlink" x="0px" y="0px"
	 width="637.794px" height="878.742px" viewBox="0 0 637.794 878.742" enable-background="new 0 0 637.794 878.742"
	 xml:space="preserve">
<path fill-rule="evenodd" clip-rule="evenodd" fill="#00AEEF" d="M376.948,128.896L589.6,154.102h0.019l0.846-0.018l0.834-0.054
	l0.811-0.084l0.792-0.126l0.768-0.15l0.738-0.186l0.72-0.21l0.702-0.246l0.666-0.27l0.636-0.294l0.606-0.324l0.582-0.342
	l0.546-0.372l0.516-0.384l0.474-0.414l0.456-0.426l0.408-0.456l0.372-0.462l0.33-0.486l0.288-0.498l0.258-0.51l0.204-0.522
	l0.168-0.534l0.12-0.546l0.072-0.558l0.023-0.552l0.09-27.072l0.013-27.936l-0.024-0.534l-0.078-0.534l-0.126-0.528l-0.168-0.51
	l-0.216-0.492l-0.258-0.492l-0.3-0.474l-0.343-0.45l-0.378-0.444l-0.414-0.42l-0.455-0.408l-0.486-0.39l-0.517-0.36l-0.552-0.348
	l-0.576-0.324l-0.605-0.306l-0.63-0.288l-0.66-0.264l-0.678-0.234l-0.702-0.21l-0.721-0.192l-0.75-0.156l-0.762-0.132l-0.779-0.108
	l-0.793-0.078l-0.81-0.042l-0.798-0.018L376.684,54.106H106.036l-0.366,0.012h-4.356l-0.648,0.024l-0.642,0.066l-0.63,0.12
	l-0.612,0.162l-0.594,0.204l-0.576,0.24l-0.552,0.282l-0.528,0.318l-0.498,0.354l-0.48,0.39l-0.444,0.414l-0.426,0.45l-0.384,0.48
	l-0.348,0.498l-0.318,0.528L93.352,59.2l-0.24,0.576l-0.204,0.594l-0.162,0.612l-0.12,0.624l-0.066,0.648l-0.024,0.648v152.7
	l0.024,0.648l0.066,0.636l0.108,0.624l0.156,0.606l0.192,0.582l0.234,0.564l0.27,0.54l0.3,0.516l0.342,0.492l0.372,0.468
	l0.408,0.432l0.432,0.408l0.468,0.372l0.492,0.342l0.516,0.3l0.54,0.27l0.564,0.234l0.582,0.192l0.6,0.156l0.63,0.108l0.636,0.066
	l0.642,0.024l266.904-0.054l0.618-0.018l0.618-0.06l0.606-0.108l0.594-0.138l0.576-0.174l0.558-0.216l0.546-0.24l0.522-0.276
	l0.491-0.318l0.48-0.342l0.45-0.372l0.426-0.396l0.402-0.426l0.365-0.456l0.33-0.474l0.307-0.498l0.27-0.522l0.229-0.546
	l0.191-0.564l0.156-0.582l0.108-0.594l0.065-0.612l0.024-0.624V128.896z M376.384,128.26l213.258,25.278l0.799-0.018l0.81-0.054
	l0.786-0.084l0.768-0.114l0.744-0.15l0.714-0.174l0.696-0.21l0.666-0.234l0.642-0.258l0.612-0.282l0.582-0.312l0.558-0.33
	l0.522-0.348l0.479-0.372l0.463-0.39l0.42-0.402l0.384-0.42l0.348-0.438l0.307-0.45l0.275-0.462l0.234-0.474l0.191-0.486
	l0.156-0.486l0.108-0.498l0.06-0.51l0.024-0.516l0.09-27.06l0.012-27.924l-0.023-0.498l-0.066-0.474l-0.114-0.48l-0.155-0.462
	l-0.192-0.456l-0.246-0.444l-0.276-0.438l-0.317-0.426l-0.354-0.408l-0.39-0.396l-0.42-0.384l-0.462-0.366l-0.492-0.348
	l-0.528-0.336l-0.552-0.312l-0.582-0.294l-0.605-0.276l-0.637-0.252l-0.653-0.222l-0.69-0.21l-0.696-0.18l-0.726-0.156l-0.738-0.132
	l-0.756-0.096l-0.78-0.078l-0.786-0.042l-0.821-0.018L376.648,54.67H106.048l-0.366,0.012h-4.356l-0.624,0.024l-0.594,0.066
	l-0.594,0.108l-0.564,0.15l-0.558,0.192l-0.54,0.228l-0.516,0.258l-0.492,0.294l-0.474,0.33l-0.444,0.366l-0.42,0.39l-0.39,0.426
	l-0.36,0.444l-0.336,0.474l-0.294,0.492l-0.258,0.516l-0.228,0.54l-0.192,0.558l-0.15,0.564L93.19,61.69l-0.066,0.6L93.1,62.914
	V215.59l0.024,0.624l0.066,0.6l0.096,0.576l0.144,0.57l0.18,0.546l0.222,0.528l0.246,0.504l0.288,0.48l0.318,0.456l0.348,0.432
	l0.372,0.408l0.408,0.372l0.432,0.348l0.456,0.318l0.48,0.288l0.504,0.246l0.528,0.222l0.546,0.18l0.564,0.144l0.582,0.096
	l0.6,0.066l0.618,0.024l266.88-0.054l0.594-0.018l0.582-0.06l0.57-0.096l0.558-0.126l0.54-0.162l0.522-0.204l0.51-0.229l0.486-0.264
	l0.468-0.294l0.444-0.318l0.426-0.348l0.401-0.372l0.366-0.402l0.343-0.42l0.317-0.45l0.282-0.462l0.246-0.486l0.216-0.51
	l0.18-0.528l0.145-0.534l0.096-0.558l0.066-0.576l0.023-0.588V128.26z"/>
<path fill-rule="evenodd" clip-rule="evenodd" fill="#00AEEF" d="M75.814,53.53H44.476l-0.642,0.024l-0.642,0.066l-0.63,0.12
	l-0.612,0.162l-0.594,0.204l-0.576,0.24l-0.552,0.282L39.7,54.946l-0.498,0.348l-0.48,0.39l-0.444,0.42l-0.42,0.444l-0.39,0.48
	l-0.348,0.498l-0.318,0.528l-0.282,0.552l-0.24,0.576l-0.204,0.594l-0.162,0.612l-0.12,0.63l-0.066,0.642l-0.024,0.648v152.454
	l0.024,0.648l0.066,0.648l0.12,0.624l0.162,0.612l0.204,0.594l0.24,0.576l0.282,0.552l0.318,0.528l0.348,0.498l0.384,0.48
	l0.426,0.45l0.444,0.414l0.48,0.39l0.498,0.354l0.528,0.318l0.552,0.282l0.576,0.24l0.594,0.204l0.612,0.162l0.63,0.12l0.642,0.066
	l0.648,0.024h31.332l0.648-0.024l0.642-0.066l0.624-0.12l0.618-0.162l0.594-0.204l0.57-0.24l0.552-0.282l0.528-0.318l0.504-0.354
	l0.474-0.39l0.45-0.414l0.42-0.45l0.384-0.48l0.354-0.498l0.318-0.528l0.282-0.552l0.24-0.576l0.204-0.594l0.162-0.612l0.12-0.624
	l0.066-0.648l0.024-0.648V62.308l-0.024-0.648l-0.066-0.642l-0.12-0.63l-0.162-0.612l-0.204-0.594l-0.24-0.576l-0.282-0.552
	l-0.318-0.528l-0.354-0.498l-0.39-0.48l-0.414-0.444l-0.45-0.42l-0.474-0.39l-0.504-0.348l-0.528-0.318l-0.552-0.282l-0.57-0.24
	l-0.594-0.204l-0.618-0.162l-0.624-0.12l-0.642-0.066L75.814,53.53z M44.5,54.094l-0.63,0.024l-0.594,0.066l-0.594,0.108
	l-0.564,0.15l-0.558,0.192l-0.54,0.228l-0.516,0.258l-0.492,0.294l-0.474,0.336l-0.444,0.354l-0.42,0.396l-0.396,0.42l-0.354,0.444
	l-0.336,0.474l-0.294,0.492l-0.258,0.516l-0.228,0.54l-0.192,0.558l-0.15,0.564l-0.108,0.594l-0.066,0.594l-0.024,0.624v152.43
	l0.024,0.624l0.066,0.6l0.108,0.588l0.15,0.564l0.192,0.558l0.228,0.54l0.258,0.516l0.294,0.492l0.336,0.474l0.36,0.444l0.39,0.426
	l0.42,0.39l0.444,0.366l0.474,0.33l0.492,0.294l0.516,0.258l0.54,0.228l0.558,0.192l0.564,0.15l0.594,0.108l0.594,0.066l0.624,0.024
	h31.308l0.624-0.024l0.594-0.066l0.588-0.108l0.57-0.15l0.558-0.192l0.534-0.228l0.516-0.258l0.492-0.294l0.48-0.33l0.438-0.366
	l0.426-0.39l0.384-0.426l0.372-0.444l0.33-0.474l0.294-0.492l0.258-0.516l0.228-0.54l0.192-0.558l0.15-0.564l0.108-0.588l0.066-0.6
	l0.024-0.624V62.32l-0.024-0.624l-0.066-0.594l-0.108-0.594l-0.15-0.564l-0.192-0.558l-0.228-0.54l-0.258-0.516l-0.294-0.492
	l-0.33-0.474l-0.366-0.444l-0.39-0.42l-0.426-0.396l-0.438-0.354l-0.48-0.336l-0.492-0.294l-0.516-0.258l-0.534-0.228l-0.558-0.192
	l-0.57-0.15l-0.588-0.108l-0.594-0.066l-0.624-0.024H44.5z"/>
<path fill-rule="evenodd" clip-rule="evenodd" fill="#00AEEF" d="M395.098,139.666h-0.023l-0.643,0.024l-0.636,0.06l-0.63,0.114
	l-0.612,0.15l-0.594,0.186l-0.57,0.222l-0.552,0.258l-0.521,0.3l-0.511,0.33l-0.468,0.354l-0.456,0.39l-0.414,0.42l-0.39,0.438
	l-0.36,0.468l-0.312,0.492l-0.282,0.516l-0.24,0.534l-0.21,0.552l-0.162,0.57l-0.113,0.588l-0.072,0.6l-0.024,0.606v85.728
	l0.024,0.606l0.072,0.6l0.113,0.588l0.162,0.57l0.21,0.552l0.24,0.534l0.282,0.516l0.312,0.492l0.36,0.468l0.39,0.438l0.414,0.42
	l0.456,0.39l0.468,0.354l0.511,0.33l0.521,0.3l0.552,0.258l0.57,0.222l0.594,0.186l0.612,0.15l0.63,0.114l0.636,0.06l0.648,0.024
	l199.032,0.102l0.647-0.024l0.637-0.06l0.63-0.114l0.611-0.15l0.595-0.186l0.569-0.222l0.552-0.258l0.522-0.3l0.51-0.33l0.468-0.354
	l0.456-0.39l0.414-0.42l0.391-0.438l0.359-0.468l0.312-0.492l0.282-0.516l0.239-0.534l0.21-0.552l0.162-0.57l0.114-0.588l0.072-0.6
	l0.023-0.606v-57.864l-0.023-0.606l-0.072-0.6l-0.114-0.588l-0.162-0.57l-0.21-0.552l-0.239-0.534l-0.282-0.516l-0.312-0.492
	l-0.359-0.468l-0.391-0.438l-0.414-0.42l-0.456-0.39l-0.468-0.354l-0.51-0.33l-0.522-0.3l-0.552-0.258l-0.569-0.222l-0.595-0.186
	l-0.611-0.15l-0.63-0.114l-0.637-0.06l-0.63-0.024L395.098,139.666z M395.056,140.23l-0.588,0.024l-0.6,0.06l-0.582,0.102
	l-0.576,0.138l-0.558,0.174l-0.534,0.21l-0.517,0.246l-0.498,0.276l-0.474,0.306l-0.444,0.342l-0.42,0.354l-0.39,0.396l-0.366,0.414
	l-0.324,0.432l-0.3,0.456l-0.258,0.48l-0.228,0.498l-0.187,0.516l-0.149,0.522l-0.114,0.54l-0.061,0.564l-0.023,0.57v85.704
	l0.023,0.57l0.061,0.564l0.114,0.54l0.149,0.522l0.187,0.516l0.228,0.498l0.258,0.48l0.3,0.456l0.324,0.432l0.366,0.414l0.39,0.396
	l0.42,0.354l0.444,0.342l0.474,0.306l0.498,0.276l0.517,0.246l0.534,0.21l0.558,0.174l0.576,0.138l0.582,0.102l0.6,0.06l0.624,0.024
	l199.008,0.102l0.624-0.024l0.601-0.06l0.582-0.102l0.576-0.138l0.558-0.174l0.534-0.21l0.516-0.246l0.498-0.276l0.475-0.306
	l0.443-0.342l0.42-0.354l0.391-0.396l0.365-0.414l0.324-0.432l0.3-0.456l0.259-0.48l0.228-0.498l0.187-0.516l0.149-0.522l0.114-0.54
	l0.06-0.564l0.024-0.57v-57.84l-0.024-0.57l-0.06-0.564l-0.114-0.54l-0.149-0.522l-0.187-0.516l-0.228-0.498l-0.259-0.48l-0.3-0.456
	l-0.324-0.432l-0.365-0.414l-0.391-0.396l-0.42-0.354l-0.443-0.342l-0.475-0.306l-0.498-0.276l-0.516-0.246l-0.534-0.21
	l-0.558-0.174l-0.576-0.138l-0.582-0.102l-0.601-0.06l-0.642-0.024L395.056,140.23z"/>
<path fill-rule="evenodd" clip-rule="evenodd" fill="#00AEEF" d="M376.948,324.202L589.6,349.408h0.019l0.846-0.018l0.834-0.054
	l0.811-0.084l0.792-0.126l0.768-0.15l0.738-0.186l0.72-0.21l0.702-0.246l0.666-0.27l0.636-0.294l0.606-0.324l0.582-0.342
	l0.546-0.372l0.516-0.384l0.474-0.414l0.456-0.426l0.408-0.456l0.372-0.462l0.33-0.486l0.288-0.498l0.258-0.51l0.204-0.522
	l0.168-0.534l0.12-0.546l0.072-0.558l0.023-0.552l0.09-27.072l0.013-27.936l-0.024-0.534l-0.078-0.534l-0.126-0.528l-0.168-0.51
	l-0.216-0.492l-0.258-0.492l-0.3-0.474l-0.343-0.45l-0.378-0.444l-0.414-0.42l-0.455-0.408l-0.486-0.39l-0.517-0.36l-0.552-0.348
	l-0.576-0.324l-0.605-0.306l-0.63-0.288l-0.66-0.264l-0.678-0.234l-0.702-0.21l-0.721-0.192l-0.75-0.156l-0.762-0.132l-0.779-0.108
	l-0.793-0.078l-0.81-0.042l-0.798-0.018l-212.395-27.228H106.036l-0.366,0.012h-4.356l-0.648,0.024l-0.642,0.066l-0.63,0.12
	l-0.612,0.162L98.188,250l-0.576,0.24l-0.552,0.282l-0.528,0.318l-0.498,0.354l-0.48,0.39l-0.444,0.414l-0.426,0.45l-0.384,0.48
	l-0.348,0.498l-0.318,0.528l-0.282,0.552l-0.24,0.576l-0.204,0.594l-0.162,0.612l-0.12,0.624l-0.066,0.648l-0.024,0.648v152.7
	l0.024,0.648l0.066,0.636l0.108,0.624l0.156,0.605l0.192,0.582l0.234,0.564l0.27,0.54l0.3,0.516l0.342,0.492l0.372,0.468
	l0.408,0.433l0.432,0.407l0.468,0.372l0.492,0.343l0.516,0.3l0.54,0.27l0.564,0.234l0.582,0.191l0.6,0.156l0.63,0.108l0.636,0.065
	l0.642,0.024l266.904-0.054l0.618-0.019l0.618-0.06l0.606-0.108l0.594-0.138l0.576-0.174l0.558-0.217l0.546-0.239l0.522-0.276
	l0.491-0.318l0.48-0.342l0.45-0.372l0.426-0.396l0.402-0.426l0.365-0.456l0.33-0.475l0.307-0.498l0.27-0.521l0.229-0.546
	l0.191-0.564l0.156-0.582l0.108-0.594l0.065-0.612l0.024-0.624V324.202z M376.384,323.566l213.258,25.278l0.799-0.018l0.81-0.054
	l0.786-0.084l0.768-0.114l0.744-0.15l0.714-0.174l0.696-0.21l0.666-0.234l0.642-0.258l0.612-0.282l0.582-0.312l0.558-0.33
	l0.522-0.348l0.479-0.372l0.463-0.39l0.42-0.402l0.384-0.42l0.348-0.438l0.307-0.45l0.275-0.462l0.234-0.474l0.191-0.486
	l0.156-0.486l0.108-0.498l0.06-0.51l0.024-0.516l0.09-27.06l0.012-27.924l-0.023-0.498l-0.066-0.474l-0.114-0.48l-0.155-0.462
	l-0.192-0.456l-0.246-0.444l-0.276-0.438l-0.317-0.426l-0.354-0.408l-0.39-0.396l-0.42-0.384l-0.462-0.366l-0.492-0.348
	l-0.528-0.336l-0.552-0.312l-0.582-0.294l-0.605-0.276l-0.637-0.252l-0.653-0.222l-0.69-0.21l-0.696-0.18l-0.726-0.156l-0.738-0.132
	l-0.756-0.096l-0.78-0.078l-0.786-0.042l-0.821-0.018l-212.382-27.228H106.048l-0.366,0.012h-4.356l-0.624,0.024l-0.594,0.066
	l-0.594,0.108l-0.564,0.15l-0.558,0.192l-0.54,0.228l-0.516,0.258l-0.492,0.294l-0.474,0.33l-0.444,0.366l-0.42,0.39l-0.39,0.426
	l-0.36,0.444l-0.336,0.474l-0.294,0.492l-0.258,0.516l-0.228,0.54l-0.192,0.558l-0.15,0.564l-0.108,0.588l-0.066,0.6L93.1,258.22
	v152.676l0.024,0.624l0.066,0.6l0.096,0.576l0.144,0.57l0.18,0.546l0.222,0.527l0.246,0.504l0.288,0.48l0.318,0.456l0.348,0.432
	l0.372,0.408l0.408,0.372l0.432,0.348l0.456,0.318l0.48,0.288l0.504,0.246l0.528,0.222l0.546,0.18l0.564,0.145l0.582,0.096
	l0.6,0.066l0.618,0.023l266.88-0.054l0.594-0.018l0.582-0.061l0.57-0.096l0.558-0.126l0.54-0.162l0.522-0.204l0.51-0.228
	l0.486-0.265l0.468-0.294l0.444-0.317l0.426-0.349l0.401-0.372l0.366-0.401l0.343-0.42l0.317-0.45l0.282-0.462l0.246-0.486
	l0.216-0.51l0.18-0.528l0.145-0.534l0.096-0.558l0.066-0.576l0.023-0.588V323.566z"/>
<path fill-rule="evenodd" clip-rule="evenodd" fill="#00AEEF" d="M75.814,248.836H44.476l-0.642,0.024l-0.642,0.066l-0.63,0.12
	l-0.612,0.162l-0.594,0.204l-0.576,0.24l-0.552,0.282l-0.528,0.318l-0.498,0.348l-0.48,0.39l-0.444,0.42l-0.42,0.444l-0.39,0.48
	l-0.348,0.498l-0.318,0.528l-0.282,0.552l-0.24,0.576l-0.204,0.594l-0.162,0.612l-0.12,0.63l-0.066,0.642l-0.024,0.648v152.454
	l0.024,0.647l0.066,0.648l0.12,0.624l0.162,0.612l0.204,0.594l0.24,0.576l0.282,0.552l0.318,0.528l0.348,0.498l0.384,0.479
	l0.426,0.45l0.444,0.414l0.48,0.39l0.498,0.354l0.528,0.317l0.552,0.282l0.576,0.24l0.594,0.204l0.612,0.162l0.63,0.119l0.642,0.066
	l0.648,0.024h31.332l0.648-0.024l0.642-0.066l0.624-0.119l0.618-0.162l0.594-0.204l0.57-0.24l0.552-0.282l0.528-0.317l0.504-0.354
	l0.474-0.39l0.45-0.414l0.42-0.45l0.384-0.479l0.354-0.498l0.318-0.528l0.282-0.552l0.24-0.576l0.204-0.594l0.162-0.612l0.12-0.624
	l0.066-0.648l0.024-0.647V257.614l-0.024-0.648l-0.066-0.642l-0.12-0.63l-0.162-0.612l-0.204-0.594l-0.24-0.576l-0.282-0.552
	l-0.318-0.528l-0.354-0.498l-0.39-0.48l-0.414-0.444l-0.45-0.42l-0.474-0.39l-0.504-0.348l-0.528-0.318l-0.552-0.282l-0.57-0.24
	l-0.594-0.204l-0.618-0.162l-0.624-0.12l-0.642-0.066L75.814,248.836z M44.5,249.4l-0.63,0.024l-0.594,0.066l-0.594,0.108
	l-0.564,0.15l-0.558,0.192l-0.54,0.228l-0.516,0.258l-0.492,0.294l-0.474,0.336l-0.444,0.354l-0.42,0.396l-0.396,0.42l-0.354,0.444
	l-0.336,0.474l-0.294,0.492l-0.258,0.516l-0.228,0.54l-0.192,0.558l-0.15,0.564l-0.108,0.594l-0.066,0.594l-0.024,0.624v152.431
	l0.024,0.623l0.066,0.601l0.108,0.588l0.15,0.564l0.192,0.558l0.228,0.54l0.258,0.516l0.294,0.492l0.336,0.474l0.36,0.444
	l0.39,0.426l0.42,0.391l0.444,0.366l0.474,0.329l0.492,0.294l0.516,0.259l0.54,0.228l0.558,0.192l0.564,0.149l0.594,0.108
	l0.594,0.066l0.624,0.023h31.308l0.624-0.023l0.594-0.066l0.588-0.108l0.57-0.149l0.558-0.192l0.534-0.228l0.516-0.259l0.492-0.294
	l0.48-0.329l0.438-0.366l0.426-0.391l0.384-0.426l0.372-0.444l0.33-0.474l0.294-0.492l0.258-0.516l0.228-0.54l0.192-0.558
	l0.15-0.564l0.108-0.588l0.066-0.601l0.024-0.623V257.626l-0.024-0.624l-0.066-0.594l-0.108-0.594l-0.15-0.564l-0.192-0.558
	l-0.228-0.54l-0.258-0.516l-0.294-0.492l-0.33-0.474l-0.366-0.444l-0.39-0.42l-0.426-0.396l-0.438-0.354l-0.48-0.336l-0.492-0.294
	l-0.516-0.258l-0.534-0.228l-0.558-0.192l-0.57-0.15l-0.588-0.108l-0.594-0.066l-0.624-0.024H44.5z"/>
<path fill-rule="evenodd" clip-rule="evenodd" fill="#00AEEF" d="M395.098,334.972h-0.023l-0.643,0.024l-0.636,0.06l-0.63,0.114
	l-0.612,0.15l-0.594,0.186l-0.57,0.222l-0.552,0.258l-0.521,0.3l-0.511,0.33l-0.468,0.354l-0.456,0.39l-0.414,0.42l-0.39,0.438
	l-0.36,0.468l-0.312,0.492l-0.282,0.516l-0.24,0.534l-0.21,0.552l-0.162,0.57l-0.113,0.588l-0.072,0.6l-0.024,0.606v85.728
	l0.024,0.606l0.072,0.6l0.113,0.588l0.162,0.57l0.21,0.552l0.24,0.534l0.282,0.516l0.312,0.492l0.36,0.468l0.39,0.438l0.414,0.42
	l0.456,0.39l0.468,0.354l0.511,0.33l0.521,0.3l0.552,0.258l0.57,0.222l0.594,0.187l0.612,0.149l0.63,0.114l0.636,0.061l0.648,0.023
	l199.032,0.103l0.647-0.024l0.637-0.06l0.63-0.114l0.611-0.15l0.595-0.186l0.569-0.222l0.552-0.259l0.522-0.3l0.51-0.33l0.468-0.354
	l0.456-0.391l0.414-0.42l0.391-0.438l0.359-0.468l0.312-0.492l0.282-0.517l0.239-0.533l0.21-0.553l0.162-0.569l0.114-0.589
	l0.072-0.6l0.023-0.605V371.11l-0.023-0.606l-0.072-0.6l-0.114-0.588l-0.162-0.57l-0.21-0.552l-0.239-0.534l-0.282-0.516
	l-0.312-0.492l-0.359-0.468l-0.391-0.438l-0.414-0.42l-0.456-0.39l-0.468-0.354l-0.51-0.33l-0.522-0.3l-0.552-0.258l-0.569-0.222
	l-0.595-0.186l-0.611-0.15l-0.63-0.114l-0.637-0.06l-0.63-0.024L395.098,334.972z M395.056,335.536l-0.588,0.024l-0.6,0.06
	l-0.582,0.102l-0.576,0.138l-0.558,0.174l-0.534,0.21l-0.517,0.246l-0.498,0.276l-0.474,0.306l-0.444,0.342l-0.42,0.354l-0.39,0.396
	l-0.366,0.414l-0.324,0.432l-0.3,0.456l-0.258,0.48l-0.228,0.498l-0.187,0.516l-0.149,0.522l-0.114,0.54l-0.061,0.564l-0.023,0.57
	v85.704l0.023,0.569l0.061,0.564l0.114,0.54l0.149,0.522l0.187,0.516l0.228,0.498l0.258,0.479l0.3,0.456l0.324,0.433l0.366,0.414
	l0.39,0.396l0.42,0.354l0.444,0.342l0.474,0.306l0.498,0.276l0.517,0.246l0.534,0.21l0.558,0.174l0.576,0.138l0.582,0.103l0.6,0.06
	l0.624,0.024l199.008,0.102l0.624-0.023l0.601-0.061l0.582-0.102l0.576-0.139l0.558-0.174l0.534-0.21l0.516-0.246l0.498-0.275
	l0.475-0.307l0.443-0.342l0.42-0.354l0.391-0.396l0.365-0.414l0.324-0.432l0.3-0.456l0.259-0.48l0.228-0.498l0.187-0.516
	l0.149-0.522l0.114-0.54l0.06-0.563l0.024-0.57v-57.84l-0.024-0.57l-0.06-0.564l-0.114-0.54l-0.149-0.522l-0.187-0.516l-0.228-0.498
	l-0.259-0.48l-0.3-0.456l-0.324-0.432l-0.365-0.414l-0.391-0.396l-0.42-0.354l-0.443-0.342l-0.475-0.306l-0.498-0.276l-0.516-0.246
	L597.04,364l-0.558-0.174l-0.576-0.138l-0.582-0.102l-0.601-0.06l-0.642-0.024L395.056,335.536z"/>
<path fill-rule="evenodd" clip-rule="evenodd" fill="#00AEEF" d="M376.948,519.508L589.6,544.714h0.019l0.846-0.018l0.834-0.054
	l0.811-0.084l0.792-0.126l0.768-0.15l0.738-0.187l0.72-0.21l0.702-0.245l0.666-0.271l0.636-0.294l0.606-0.324l0.582-0.342
	l0.546-0.372l0.516-0.384l0.474-0.414l0.456-0.426l0.408-0.456l0.372-0.462l0.33-0.486l0.288-0.498l0.258-0.51l0.204-0.522
	l0.168-0.534l0.12-0.546l0.072-0.558l0.023-0.552l0.09-27.072l0.013-27.936l-0.024-0.534l-0.078-0.534l-0.126-0.528l-0.168-0.51
	l-0.216-0.492l-0.258-0.492l-0.3-0.474l-0.343-0.45l-0.378-0.443l-0.414-0.42l-0.455-0.408l-0.486-0.391l-0.517-0.359l-0.552-0.349
	l-0.576-0.323l-0.605-0.307l-0.63-0.288l-0.66-0.264l-0.678-0.234l-0.702-0.21l-0.721-0.191l-0.75-0.156l-0.762-0.132l-0.779-0.108
	l-0.793-0.078l-0.81-0.042l-0.798-0.018l-212.395-27.229H106.036l-0.366,0.013h-4.356l-0.648,0.023l-0.642,0.066l-0.63,0.12
	l-0.612,0.162l-0.594,0.204l-0.576,0.239l-0.552,0.282l-0.528,0.318l-0.498,0.354l-0.48,0.391l-0.444,0.414l-0.426,0.449
	l-0.384,0.48l-0.348,0.498l-0.318,0.527l-0.282,0.553l-0.24,0.576l-0.204,0.594l-0.162,0.611l-0.12,0.624l-0.066,0.648l-0.024,0.648
	v152.699l0.024,0.648l0.066,0.636l0.108,0.624l0.156,0.606l0.192,0.582l0.234,0.563l0.27,0.54l0.3,0.517l0.342,0.491l0.372,0.469
	l0.408,0.432l0.432,0.408l0.468,0.372l0.492,0.342l0.516,0.3l0.54,0.271l0.564,0.233l0.582,0.192l0.6,0.155l0.63,0.108l0.636,0.066
	l0.642,0.023l266.904-0.054l0.618-0.018l0.618-0.061l0.606-0.108l0.594-0.138l0.576-0.174l0.558-0.216l0.546-0.24l0.522-0.276
	l0.491-0.317l0.48-0.342l0.45-0.372l0.426-0.396l0.402-0.426l0.365-0.456l0.33-0.474l0.307-0.498l0.27-0.522l0.229-0.546
	l0.191-0.564l0.156-0.581l0.108-0.595l0.065-0.611l0.024-0.624V519.508z M376.384,518.872l213.258,25.278l0.799-0.019l0.81-0.054
	l0.786-0.084l0.768-0.114l0.744-0.149l0.714-0.174l0.696-0.211l0.666-0.233l0.642-0.258l0.612-0.282l0.582-0.312l0.558-0.33
	l0.522-0.348l0.479-0.372l0.463-0.39l0.42-0.402l0.384-0.42l0.348-0.438l0.307-0.45l0.275-0.462l0.234-0.475l0.191-0.485
	l0.156-0.486l0.108-0.498l0.06-0.51l0.024-0.517l0.09-27.06l0.012-27.924l-0.023-0.498l-0.066-0.474l-0.114-0.48l-0.155-0.462
	l-0.192-0.456l-0.246-0.444l-0.276-0.438l-0.317-0.426l-0.354-0.408l-0.39-0.396l-0.42-0.384l-0.462-0.366l-0.492-0.348
	l-0.528-0.336l-0.552-0.312l-0.582-0.294l-0.605-0.275l-0.637-0.252l-0.653-0.223l-0.69-0.21l-0.696-0.18l-0.726-0.156l-0.738-0.132
	l-0.756-0.096l-0.78-0.078l-0.786-0.042l-0.821-0.019l-212.382-27.228H106.048l-0.366,0.012h-4.356l-0.624,0.024l-0.594,0.065
	l-0.594,0.108l-0.564,0.15l-0.558,0.191l-0.54,0.229l-0.516,0.258l-0.492,0.294l-0.474,0.33l-0.444,0.366l-0.42,0.39l-0.39,0.426
	l-0.36,0.444l-0.336,0.474l-0.294,0.492l-0.258,0.516l-0.228,0.54l-0.192,0.559l-0.15,0.563l-0.108,0.588l-0.066,0.601l-0.024,0.624
	v152.676l0.024,0.624l0.066,0.6l0.096,0.576l0.144,0.57l0.18,0.546l0.222,0.528l0.246,0.504l0.288,0.479l0.318,0.456l0.348,0.433
	l0.372,0.407l0.408,0.372l0.432,0.349l0.456,0.317l0.48,0.288l0.504,0.246l0.528,0.222l0.546,0.181l0.564,0.144l0.582,0.097
	l0.6,0.065l0.618,0.024l266.88-0.055l0.594-0.018l0.582-0.06l0.57-0.097l0.558-0.126l0.54-0.162l0.522-0.204l0.51-0.228l0.486-0.264
	l0.468-0.294l0.444-0.318l0.426-0.348l0.401-0.372l0.366-0.402l0.343-0.42l0.317-0.45l0.282-0.462l0.246-0.486l0.216-0.51
	l0.18-0.528l0.145-0.533l0.096-0.559l0.066-0.576l0.023-0.588V518.872z"/>
<path fill-rule="evenodd" clip-rule="evenodd" fill="#00AEEF" d="M75.814,444.143H44.476l-0.642,0.023l-0.642,0.066l-0.63,0.12
	l-0.612,0.162l-0.594,0.203l-0.576,0.24l-0.552,0.282l-0.528,0.318l-0.498,0.348l-0.48,0.39l-0.444,0.42l-0.42,0.444l-0.39,0.48
	l-0.348,0.498l-0.318,0.527l-0.282,0.552l-0.24,0.576l-0.204,0.595L35.914,451l-0.12,0.63l-0.066,0.643l-0.024,0.647v152.454
	l0.024,0.648l0.066,0.647l0.12,0.624l0.162,0.612l0.204,0.594l0.24,0.576l0.282,0.552l0.318,0.528l0.348,0.498l0.384,0.479
	l0.426,0.45l0.444,0.414l0.48,0.391l0.498,0.354l0.528,0.318l0.552,0.281l0.576,0.24l0.594,0.204l0.612,0.162l0.63,0.12l0.642,0.065
	l0.648,0.024h31.332l0.648-0.024l0.642-0.065l0.624-0.12l0.618-0.162l0.594-0.204l0.57-0.24l0.552-0.281l0.528-0.318l0.504-0.354
	l0.474-0.391l0.45-0.414l0.42-0.45l0.384-0.479l0.354-0.498l0.318-0.528l0.282-0.552l0.24-0.576l0.204-0.594l0.162-0.612l0.12-0.624
	l0.066-0.647l0.024-0.648V452.92l-0.024-0.647l-0.066-0.643l-0.12-0.63l-0.162-0.611l-0.204-0.595l-0.24-0.576l-0.282-0.552
	l-0.318-0.527l-0.354-0.498l-0.39-0.48l-0.414-0.444l-0.45-0.42l-0.474-0.39l-0.504-0.348l-0.528-0.318l-0.552-0.282l-0.57-0.24
	l-0.594-0.203l-0.618-0.162l-0.624-0.12l-0.642-0.066L75.814,444.143z M44.5,444.706l-0.63,0.024l-0.594,0.065l-0.594,0.108
	l-0.564,0.15l-0.558,0.191l-0.54,0.229l-0.516,0.258l-0.492,0.294l-0.474,0.336l-0.444,0.354l-0.42,0.396l-0.396,0.42l-0.354,0.444
	l-0.336,0.474l-0.294,0.492l-0.258,0.516l-0.228,0.54l-0.192,0.559l-0.15,0.563l-0.108,0.594l-0.066,0.595l-0.024,0.624v152.43
	l0.024,0.624l0.066,0.6l0.108,0.588l0.15,0.564l0.192,0.558l0.228,0.54l0.258,0.517l0.294,0.491l0.336,0.475l0.36,0.443l0.39,0.427
	l0.42,0.39l0.444,0.366l0.474,0.33l0.492,0.294l0.516,0.258l0.54,0.228l0.558,0.192l0.564,0.15l0.594,0.107l0.594,0.066l0.624,0.023
	h31.308l0.624-0.023l0.594-0.066l0.588-0.107l0.57-0.15l0.558-0.192l0.534-0.228l0.516-0.258l0.492-0.294l0.48-0.33l0.438-0.366
	l0.426-0.39l0.384-0.427l0.372-0.443l0.33-0.475l0.294-0.491l0.258-0.517l0.228-0.54l0.192-0.558l0.15-0.564l0.108-0.588l0.066-0.6
	l0.024-0.624v-152.43l-0.024-0.624l-0.066-0.595l-0.108-0.594l-0.15-0.563l-0.192-0.559l-0.228-0.54l-0.258-0.516l-0.294-0.492
	l-0.33-0.474l-0.366-0.444l-0.39-0.42l-0.426-0.396l-0.438-0.354l-0.48-0.336l-0.492-0.294l-0.516-0.258l-0.534-0.229l-0.558-0.191
	l-0.57-0.15l-0.588-0.108l-0.594-0.065l-0.624-0.024H44.5z"/>
<path fill-rule="evenodd" clip-rule="evenodd" fill="#00AEEF" d="M395.098,530.278h-0.023l-0.643,0.023l-0.636,0.061l-0.63,0.114
	l-0.612,0.149l-0.594,0.187l-0.57,0.222l-0.552,0.258l-0.521,0.3l-0.511,0.33l-0.468,0.354l-0.456,0.39l-0.414,0.42l-0.39,0.438
	l-0.36,0.468l-0.312,0.492L387.124,535l-0.24,0.534l-0.21,0.552l-0.162,0.57l-0.113,0.588l-0.072,0.6l-0.024,0.606v85.728
	l0.024,0.606l0.072,0.6l0.113,0.589l0.162,0.569l0.21,0.552l0.24,0.534l0.282,0.517l0.312,0.491l0.36,0.469l0.39,0.438l0.414,0.42
	l0.456,0.391l0.468,0.354l0.511,0.33l0.521,0.3l0.552,0.258l0.57,0.223l0.594,0.186l0.612,0.15l0.63,0.114l0.636,0.06l0.648,0.024
	l199.032,0.102l0.647-0.024l0.637-0.06l0.63-0.114l0.611-0.149l0.595-0.187l0.569-0.222l0.552-0.258l0.522-0.3l0.51-0.33
	l0.468-0.354l0.456-0.39l0.414-0.42l0.391-0.438l0.359-0.468l0.312-0.492l0.282-0.516l0.239-0.534l0.21-0.552l0.162-0.57
	l0.114-0.588l0.072-0.601l0.023-0.605v-57.864l-0.023-0.605l-0.072-0.601l-0.114-0.588l-0.162-0.57l-0.21-0.552l-0.239-0.534
	l-0.282-0.516l-0.312-0.492l-0.359-0.468l-0.391-0.438l-0.414-0.42l-0.456-0.39l-0.468-0.354l-0.51-0.33l-0.522-0.301L597.802,559
	l-0.569-0.222l-0.595-0.187l-0.611-0.149l-0.63-0.114l-0.637-0.06l-0.63-0.024L395.098,530.278z M395.056,530.842l-0.588,0.024
	l-0.6,0.06l-0.582,0.103l-0.576,0.138l-0.558,0.174l-0.534,0.21l-0.517,0.246l-0.498,0.276l-0.474,0.306l-0.444,0.342l-0.42,0.354
	l-0.39,0.396l-0.366,0.414l-0.324,0.433l-0.3,0.456l-0.258,0.479l-0.228,0.498l-0.187,0.517l-0.149,0.521l-0.114,0.54l-0.061,0.564
	l-0.023,0.569v85.704l0.023,0.57l0.061,0.563l0.114,0.54l0.149,0.522l0.187,0.516l0.228,0.498l0.258,0.48l0.3,0.456l0.324,0.432
	l0.366,0.414l0.39,0.396l0.42,0.354l0.444,0.342l0.474,0.307l0.498,0.275l0.517,0.246l0.534,0.21l0.558,0.174l0.576,0.139
	l0.582,0.102l0.6,0.06l0.624,0.024l199.008,0.103l0.624-0.024l0.601-0.061l0.582-0.102l0.576-0.138l0.558-0.174l0.534-0.21
	l0.516-0.246l0.498-0.276l0.475-0.306l0.443-0.343l0.42-0.354l0.391-0.396l0.365-0.414l0.324-0.432l0.3-0.456l0.259-0.479
	l0.228-0.498l0.187-0.517l0.149-0.521l0.114-0.54l0.06-0.564l0.024-0.569v-57.841l-0.024-0.569l-0.06-0.564l-0.114-0.54
	l-0.149-0.521l-0.187-0.517l-0.228-0.498l-0.259-0.479l-0.3-0.456l-0.324-0.432l-0.365-0.414l-0.391-0.396l-0.42-0.354l-0.443-0.343
	l-0.475-0.306l-0.498-0.276l-0.516-0.245l-0.534-0.21l-0.558-0.175l-0.576-0.138l-0.582-0.102l-0.601-0.061l-0.642-0.023
	L395.056,530.842z"/>
<path fill-rule="evenodd" clip-rule="evenodd" fill="#00AEEF" d="M376.948,714.814L589.6,740.021l0.864-0.019l0.834-0.054
	l0.811-0.084l0.792-0.126l0.768-0.15l0.738-0.186l0.72-0.21l0.702-0.246l0.666-0.271l0.636-0.294l0.606-0.323l0.582-0.343
	l0.546-0.372l0.516-0.384l0.474-0.414l0.456-0.426l0.408-0.456l0.372-0.462l0.33-0.486l0.288-0.498l0.258-0.51l0.204-0.521
	l0.168-0.534l0.12-0.546l0.072-0.559l0.023-0.552l0.09-27.072l0.013-27.936l-0.024-0.534l-0.078-0.534l-0.126-0.527l-0.168-0.511
	l-0.216-0.491l-0.258-0.492l-0.3-0.475l-0.343-0.449l-0.378-0.444l-0.414-0.42l-0.455-0.408l-0.486-0.39l-0.517-0.36l-0.552-0.348
	l-0.576-0.324l-0.605-0.306l-0.63-0.288l-0.66-0.265l-0.678-0.233l-0.702-0.21l-0.721-0.192l-0.75-0.156l-0.762-0.132l-0.779-0.107
	l-0.793-0.078l-0.81-0.042l-0.798-0.019l-212.395-27.228H106.036l-0.366,0.012h-4.356l-0.648,0.024l-0.642,0.065l-0.63,0.12
	l-0.612,0.162l-0.594,0.204l-0.576,0.24l-0.552,0.281l-0.528,0.318l-0.498,0.354l-0.48,0.39l-0.444,0.414l-0.426,0.45L94.3,643.54
	l-0.348,0.498l-0.318,0.528l-0.282,0.552l-0.24,0.576l-0.204,0.594l-0.162,0.612l-0.12,0.624l-0.066,0.647l-0.024,0.648v152.7
	l0.024,0.647l0.066,0.636l0.108,0.624l0.156,0.606l0.192,0.582l0.234,0.564l0.27,0.539l0.3,0.517l0.342,0.492l0.372,0.468
	l0.408,0.432l0.432,0.408l0.468,0.372l0.492,0.342l0.516,0.3l0.54,0.271l0.564,0.233l0.582,0.192l0.6,0.156l0.63,0.107l0.636,0.066
	l0.642,0.024l266.904-0.055l0.618-0.018l0.618-0.061l0.606-0.107l0.594-0.138l0.576-0.175l0.558-0.216l0.546-0.24l0.522-0.275
	l0.491-0.318l0.48-0.342l0.45-0.372l0.426-0.396l0.402-0.427l0.365-0.456l0.33-0.474l0.307-0.498l0.27-0.522l0.229-0.546
	l0.191-0.563l0.156-0.582l0.108-0.594l0.065-0.612l0.024-0.624V714.814z M376.384,714.178l213.24,25.278l0.816-0.018l0.81-0.055
	l0.786-0.084l0.768-0.113l0.744-0.15l0.714-0.174l0.696-0.21l0.666-0.234l0.642-0.258l0.612-0.282l0.582-0.312l0.558-0.33
	l0.522-0.348l0.479-0.372l0.463-0.391l0.42-0.401l0.384-0.421l0.348-0.438l0.307-0.45l0.275-0.462l0.234-0.474l0.191-0.486
	l0.156-0.486l0.108-0.498l0.06-0.51l0.024-0.516l0.09-27.061L602.092,676l-0.023-0.498l-0.066-0.474l-0.114-0.48l-0.155-0.462
	l-0.192-0.456l-0.246-0.443l-0.276-0.438l-0.317-0.426l-0.354-0.408l-0.39-0.396l-0.42-0.385l-0.462-0.365l-0.492-0.349
	l-0.528-0.336l-0.552-0.312l-0.582-0.294l-0.605-0.276l-0.637-0.252l-0.653-0.222l-0.69-0.21l-0.696-0.181l-0.726-0.155
	l-0.738-0.133l-0.756-0.096l-0.78-0.078l-0.786-0.042l-0.821-0.018l-212.382-27.229H106.048l-0.366,0.013h-4.356l-0.624,0.023
	l-0.594,0.066l-0.594,0.107l-0.564,0.15l-0.558,0.192l-0.54,0.228l-0.516,0.258l-0.492,0.294l-0.474,0.33l-0.444,0.366l-0.42,0.39
	l-0.39,0.427l-0.36,0.443l-0.336,0.475l-0.294,0.491l-0.258,0.517l-0.228,0.54l-0.192,0.558l-0.15,0.564l-0.108,0.588l-0.066,0.6
	l-0.024,0.624v152.676l0.024,0.624l0.066,0.601l0.096,0.576l0.144,0.569l0.18,0.546l0.222,0.528l0.246,0.504l0.288,0.48l0.318,0.456
	l0.348,0.432l0.372,0.408l0.408,0.372l0.432,0.348l0.456,0.318l0.48,0.288l0.504,0.245l0.528,0.223l0.546,0.18l0.564,0.145
	l0.582,0.096l0.6,0.065l0.618,0.024l266.88-0.054l0.594-0.019l0.582-0.06l0.57-0.096l0.558-0.126l0.54-0.162l0.522-0.204l0.51-0.229
	l0.486-0.264l0.468-0.294l0.444-0.318l0.426-0.348l0.401-0.372l0.366-0.402l0.343-0.42l0.317-0.45l0.282-0.462l0.246-0.485
	l0.216-0.511l0.18-0.527l0.145-0.534l0.096-0.558l0.066-0.576l0.023-0.588v-86.982V714.178z"/>
<path fill-rule="evenodd" clip-rule="evenodd" fill="#00AEEF" d="M75.814,639.448H44.482l-0.648,0.024l-0.642,0.065l-0.63,0.12
	l-0.612,0.162l-0.594,0.204l-0.576,0.24l-0.552,0.281l-0.528,0.318l-0.498,0.348l-0.48,0.391l-0.444,0.42l-0.42,0.443l-0.39,0.48
	l-0.348,0.498l-0.318,0.528l-0.282,0.552l-0.24,0.576l-0.204,0.594l-0.162,0.612l-0.12,0.63l-0.066,0.642l-0.024,0.648v152.454
	l0.024,0.647l0.066,0.648l0.12,0.624l0.162,0.611l0.204,0.595l0.24,0.575l0.282,0.553l0.318,0.527l0.348,0.498l0.384,0.48
	l0.426,0.45l0.444,0.413l0.48,0.391l0.498,0.354l0.528,0.318l0.552,0.282l0.576,0.24l0.594,0.203l0.612,0.162l0.63,0.12l0.642,0.066
	l0.648,0.023h31.332l0.648-0.023l0.642-0.066l0.624-0.12l0.618-0.162l0.594-0.203l0.57-0.24l0.552-0.282l0.528-0.318l0.504-0.354
	l0.474-0.391l0.45-0.413l0.42-0.45l0.384-0.48l0.354-0.498l0.318-0.527l0.282-0.553l0.24-0.575l0.204-0.595l0.162-0.611l0.12-0.624
	l0.066-0.648l0.024-0.647V648.227l-0.024-0.648l-0.066-0.642l-0.12-0.63l-0.162-0.612l-0.204-0.594l-0.24-0.576l-0.282-0.552
	l-0.318-0.528l-0.354-0.498l-0.39-0.48l-0.414-0.443l-0.45-0.42l-0.474-0.391l-0.504-0.348l-0.528-0.318l-0.552-0.281l-0.57-0.24
	l-0.594-0.204l-0.618-0.162l-0.624-0.12l-0.642-0.065L75.814,639.448z M75.796,640.012H44.494l-0.624,0.024l-0.594,0.066
	l-0.594,0.107l-0.564,0.15l-0.558,0.191l-0.54,0.229l-0.516,0.258l-0.492,0.294l-0.474,0.336l-0.444,0.354l-0.42,0.396l-0.396,0.42
	l-0.354,0.444l-0.336,0.474l-0.294,0.492l-0.258,0.517l-0.228,0.539l-0.192,0.559l-0.15,0.563l-0.108,0.595l-0.066,0.594
	l-0.024,0.624v152.43l0.024,0.624l0.066,0.601l0.108,0.588l0.15,0.563l0.192,0.559l0.228,0.54l0.258,0.516l0.294,0.492l0.336,0.474
	l0.36,0.444l0.39,0.426l0.42,0.39l0.444,0.366l0.474,0.33l0.492,0.294l0.516,0.258l0.54,0.229l0.558,0.191l0.564,0.15l0.594,0.108
	l0.594,0.065l0.624,0.024h31.308l0.624-0.024l0.594-0.065l0.588-0.108l0.57-0.15l0.558-0.191l0.534-0.229l0.516-0.258l0.492-0.294
	l0.48-0.33l0.438-0.366l0.426-0.39l0.384-0.426l0.372-0.444l0.33-0.474l0.294-0.492l0.258-0.516l0.228-0.54l0.192-0.559l0.15-0.563
	l0.108-0.588l0.066-0.601l0.024-0.624v-152.43l-0.024-0.624l-0.066-0.594l-0.108-0.595l-0.15-0.563l-0.192-0.559l-0.228-0.539
	l-0.258-0.517l-0.294-0.492l-0.33-0.474l-0.366-0.444l-0.39-0.42l-0.426-0.396l-0.438-0.354l-0.48-0.336l-0.492-0.294l-0.516-0.258
	l-0.534-0.229l-0.558-0.191l-0.57-0.15l-0.588-0.107l-0.594-0.066L75.796,640.012z"/>
<path fill-rule="evenodd" clip-rule="evenodd" fill="#00AEEF" d="M395.098,725.584h-0.023l-0.643,0.024l-0.636,0.06l-0.63,0.114
	l-0.612,0.15l-0.594,0.186l-0.57,0.222l-0.552,0.259l-0.521,0.3l-0.511,0.33l-0.468,0.354l-0.456,0.391l-0.414,0.42l-0.39,0.438
	l-0.36,0.468l-0.312,0.492l-0.282,0.517l-0.24,0.533l-0.21,0.553l-0.162,0.569l-0.113,0.588l-0.072,0.601l-0.024,0.605v85.729
	l0.024,0.605l0.072,0.601l0.113,0.588l0.162,0.57l0.21,0.552l0.24,0.534l0.282,0.516l0.312,0.492l0.36,0.468l0.39,0.438l0.414,0.42
	l0.456,0.39l0.468,0.354l0.511,0.33l0.521,0.301l0.552,0.258l0.57,0.222l0.594,0.187l0.612,0.149l0.63,0.114l0.636,0.06l0.648,0.024
	l199.032,0.102l0.647-0.023l0.637-0.061l0.63-0.113l0.611-0.15l0.595-0.186l0.569-0.223l0.552-0.258l0.522-0.3l0.51-0.33
	l0.468-0.354l0.456-0.39l0.414-0.42l0.391-0.438l0.359-0.468l0.312-0.492l0.282-0.516l0.239-0.534l0.21-0.552l0.162-0.57
	l0.114-0.588l0.072-0.6l0.023-0.606v-57.863l-0.023-0.606l-0.072-0.6l-0.114-0.589l-0.162-0.569l-0.21-0.552l-0.239-0.534
	l-0.282-0.517l-0.312-0.491l-0.359-0.469l-0.391-0.438l-0.414-0.42l-0.456-0.391l-0.468-0.354l-0.51-0.33l-0.522-0.3l-0.552-0.258
	l-0.569-0.223l-0.595-0.186l-0.611-0.15l-0.63-0.114l-0.637-0.06l-0.63-0.024L395.098,725.584z M395.056,726.148l-0.588,0.023
	l-0.6,0.061l-0.582,0.102l-0.576,0.139l-0.558,0.174l-0.534,0.21l-0.517,0.246l-0.498,0.275l-0.474,0.307l-0.444,0.342l-0.42,0.354
	l-0.39,0.396l-0.366,0.414l-0.324,0.432l-0.3,0.456l-0.258,0.48l-0.228,0.498l-0.187,0.516l-0.149,0.521l-0.114,0.54l-0.061,0.564
	l-0.023,0.57v85.704l0.023,0.569l0.061,0.564l0.114,0.54l0.149,0.521l0.187,0.517l0.228,0.498l0.258,0.479l0.3,0.456l0.324,0.432
	l0.366,0.414l0.39,0.396l0.42,0.354l0.444,0.343l0.474,0.306l0.498,0.276l0.517,0.245l0.534,0.21l0.558,0.175l0.576,0.138
	l0.582,0.102l0.6,0.061l0.624,0.023l199.008,0.103l0.624-0.024l0.601-0.06l0.582-0.103l0.576-0.138l0.558-0.174l0.534-0.21
	l0.516-0.246l0.498-0.276l0.475-0.306l0.443-0.342l0.42-0.354l0.391-0.396l0.365-0.414l0.324-0.433l0.3-0.455l0.259-0.48
	l0.228-0.498l0.187-0.516l0.149-0.522l0.114-0.54l0.06-0.563l0.024-0.57v-57.84l-0.024-0.57l-0.06-0.563l-0.114-0.54l-0.149-0.522
	l-0.187-0.516l-0.228-0.498l-0.259-0.48l-0.3-0.456l-0.324-0.432l-0.365-0.414l-0.391-0.396l-0.42-0.354l-0.443-0.342l-0.475-0.307
	l-0.498-0.275l-0.516-0.246l-0.534-0.21l-0.558-0.174l-0.576-0.139l-0.582-0.102l-0.601-0.06l-0.642-0.024L395.056,726.148z"/>
</svg>
